<?xml version="1.0" standalone="no"?>
<!DOCTYPE svg PUBLIC "-//W3C//DTD SVG 20010904//EN"
 "http://www.w3.org/TR/2001/REC-SVG-20010904/DTD/svg10.dtd">
<svg version="1.0" xmlns="http://www.w3.org/2000/svg"
 width="700.000000pt" height="700.000000pt" viewBox="0 0 700.000000 700.000000"
 preserveAspectRatio="xMidYMid meet">
<metadata>
Created by potrace 1.11, written by Peter Selinger 2001-2013
</metadata>
<g transform="translate(0.000000,700.000000) scale(0.100000,-0.100000)"
fill="#000000" stroke="none">
<path d="M4823 6380 c-51 -23 -130 -94 -190 -173 -95 -123 -310 -533 -494
-939 l-93 -208 -166 0 c-373 -2 -602 -17 -817 -54 -111 -20 -213 -36 -226 -36
-13 0 -82 37 -153 82 -296 187 -380 238 -594 361 -575 332 -1073 552 -1390
617 -272 55 -399 31 -453 -89 -30 -65 -36 -311 -12 -507 44 -369 172 -924 404
-1748 l39 -138 -44 -95 c-107 -231 -139 -365 -138 -588 0 -141 4 -178 32 -311
60 -281 130 -485 180 -525 46 -36 146 -17 173 33 19 36 12 91 -35 255 -73 256
-88 333 -93 493 -3 87 -1 175 6 219 18 113 67 249 133 368 l60 107 -66 236
c-243 869 -346 1309 -400 1699 -18 123 -23 308 -9 322 13 13 60 -15 198 -118
219 -162 400 -322 735 -649 278 -272 301 -284 380 -198 38 41 42 50 37 81 -4
20 -19 54 -34 76 -35 51 -259 278 -483 490 -96 91 -172 168 -169 171 7 7 351
-157 531 -254 176 -95 543 -311 702 -413 129 -84 139 -69 -113 -157 -308 -107
-494 -190 -530 -236 -47 -59 -5 -156 77 -176 31 -8 89 9 302 89 870 329 1480
410 2210 292 641 -103 1231 -371 1603 -728 48 -46 87 -88 87 -92 0 -5 -44 -9
-97 -9 -392 0 -754 -73 -1117 -224 -64 -27 -92 -34 -99 -27 -7 7 -19 63 -28
127 -14 96 -24 130 -58 198 -25 52 -56 98 -82 121 -40 35 -44 37 -97 33 -47
-4 -60 -10 -85 -38 -26 -29 -29 -39 -25 -80 3 -31 16 -62 37 -93 56 -82 62
-113 70 -337 l6 -206 46 -54 c41 -49 109 -149 109 -162 0 -3 -118 -8 -262 -11
-158 -4 -266 -11 -272 -17 -27 -27 88 -172 184 -231 l53 -32 -6 -91 c-9 -129
-33 -259 -64 -334 -62 -155 -182 -334 -324 -480 -127 -131 -139 -148 -139
-198 0 -34 6 -48 31 -73 53 -53 108 -54 183 -2 58 40 203 195 289 309 38 50
73 92 76 92 4 0 36 -48 71 -108 79 -133 121 -185 166 -207 34 -16 39 -16 81 0
57 22 86 65 79 118 -2 23 -36 92 -85 177 -45 77 -101 180 -125 230 l-44 89 19
89 c10 49 25 150 33 225 8 75 20 147 27 159 7 13 38 53 71 90 l59 67 72 -52
c203 -146 384 -163 602 -59 181 87 318 238 386 423 28 76 56 206 61 284 l3 40
103 5 c97 5 105 7 127 32 13 15 29 53 35 84 l12 56 73 -99 c278 -377 396 -742
364 -1129 -26 -330 -142 -566 -439 -899 -352 -394 -803 -668 -1310 -795 -262
-65 -513 -90 -918 -90 -496 0 -871 48 -1300 166 -546 150 -971 373 -1341 704
-118 105 -157 130 -204 130 -30 0 -45 -7 -67 -30 -37 -40 -54 -89 -41 -122 33
-88 318 -333 567 -489 500 -313 1042 -486 1839 -590 160 -20 195 -21 605 -16
468 7 526 11 755 58 593 120 1039 352 1456 757 367 355 551 654 631 1026 30
137 32 454 5 591 -72 358 -206 634 -465 960 -122 153 -137 181 -207 379 -175
499 -480 1172 -687 1515 -105 173 -302 410 -402 483 -48 34 -119 38 -183 8z
m151 -320 c174 -188 421 -629 633 -1130 100 -238 178 -438 172 -444 -2 -2 -47
21 -99 51 -399 227 -776 368 -1230 458 -74 15 -136 28 -138 30 -13 12 323 707
417 865 90 151 149 230 170 230 11 0 44 -27 75 -60z m579 -2423 c14 -38 -34
-206 -81 -281 -55 -89 -179 -187 -275 -220 -97 -33 -194 -13 -271 55 -46 41
-166 192 -166 210 0 14 120 69 152 69 22 0 29 -6 34 -27 29 -132 74 -210 131
-226 75 -22 145 18 183 105 19 42 24 77 28 171 4 109 6 118 26 122 144 36 231
43 239 22z"/>
<path d="M3810 4283 c-8 -3 -27 -17 -42 -31 -45 -42 -39 -95 22 -201 101 -175
132 -303 108 -441 -12 -70 -14 -75 -37 -72 -13 2 -126 41 -250 87 -604 222
-1012 294 -1673 295 l-227 0 -34 -42 c-48 -60 -52 -80 -28 -132 26 -53 53 -66
136 -66 62 0 65 -1 71 -27 77 -358 189 -581 381 -763 74 -70 113 -98 186 -134
146 -72 190 -80 406 -72 101 3 216 13 257 22 129 26 285 94 407 176 80 53 229
202 296 296 29 39 57 72 62 72 5 0 29 -5 54 -12 64 -17 102 3 148 79 89 146
126 351 94 519 -28 146 -103 305 -186 396 -40 43 -52 50 -91 54 -25 2 -52 1
-60 -3z m-1430 -628 c196 -18 367 -43 392 -56 17 -9 16 -13 -9 -62 -25 -48
-27 -62 -27 -167 0 -149 13 -192 73 -251 54 -52 88 -63 128 -42 83 43 124 125
130 263 4 80 2 103 -16 148 l-21 52 25 0 c55 0 493 -154 524 -185 20 -19 -9
-62 -106 -156 -118 -115 -212 -176 -343 -221 -127 -44 -406 -63 -500 -34 -147
46 -254 132 -348 281 -67 108 -162 347 -162 410 0 40 22 42 260 20z"/>
</g>
</svg>
