<?xml version="1.0" encoding="UTF-8" standalone="no"?>
<svg
   xmlns:dc="http://purl.org/dc/elements/1.1/"
   xmlns:cc="http://creativecommons.org/ns#"
   xmlns:rdf="http://www.w3.org/1999/02/22-rdf-syntax-ns#"
   xmlns:svg="http://www.w3.org/2000/svg"
   xmlns="http://www.w3.org/2000/svg"
   version="1.1"
   viewBox="0 0 512 512"
   id="svg8149">
  <metadata
     id="metadata8">
    <rdf:RDF>
      <cc:Work
         rdf:about="">
        <dc:format>image/svg+xml</dc:format>
        <dc:type
           rdf:resource="http://purl.org/dc/dcmitype/StillImage" />
        <dc:title></dc:title>
      </cc:Work>
    </rdf:RDF>
  </metadata>
  <defs
     id="defs6" />
  <path
     style="fill:#006680"
     d="m 251.22539,467.81335 c -66.56962,-7.5346 -108.98447,-21.22808 -149.93423,-48.4075 -17.490361,-11.60881 -35.417533,-28.38597 -35.417533,-33.14728 0,-2.704 3.299258,-8.28782 5.365519,-9.0807 5.118659,-1.96425 7.796583,-0.60116 18.5092,9.42107 35.650114,33.35152 91.557874,55.53588 156.167724,61.96769 20.76175,2.06674 60.75759,1.79887 78.50886,-0.52588 50.34012,-6.59251 89.08808,-27.08851 123.07592,-65.10333 21.88449,-24.47941 30.6043,-45.00389 30.59366,-72.01565 -0.0104,-25.97522 -8.92945,-50.15478 -27.61268,-74.85732 l -4.99364,-6.60265 -0.7382,4.50735 c -1.10114,6.72342 -3.291,8.25926 -11.94516,8.37742 l -7.42587,0.0945 -0.71834,7.08351 c -2.23603,22.0486 -13.72075,38.92859 -32.62546,47.95062 -15.22599,7.26684 -29.831,5.92122 -42.87291,-3.95024 l -5.98911,-4.53297 -5.40614,6.01296 c -5.20306,5.7871 -5.42301,6.33182 -5.85474,14.50347 -0.24679,4.66957 -1.25911,12.30051 -2.24961,16.95673 l -1.80086,8.46657 4.11528,8.65192 c 2.26341,4.75857 6.52909,12.37015 9.47938,16.9154 2.95017,4.54525 5.37544,9.66616 5.38925,11.37989 0.0337,4.16003 -3.28415,7.934 -7.72882,8.79111 -5.10744,0.9849 -9.49331,-3.07353 -15.93316,-14.74432 -2.88016,-5.21924 -5.50224,-9.50418 -5.82689,-9.52201 -0.32467,-0.0178 -2.11502,2.38101 -3.97869,5.33081 -1.86367,2.94981 -7.39152,9.6187 -12.28399,14.81988 -12.3796,13.1588 -17.0004,15.24135 -23.12765,10.42232 -2.27852,-1.78268 -3.11673,-3.51814 -3.11673,-6.4696 0,-3.45392 1.17645,-5.15277 8.19231,-11.82946 12.71135,-12.09626 24.42984,-30.25247 27.89957,-43.22474 0.92141,-3.44471 2.0149,-10.55383 2.42987,-15.79858 l 0.75463,-9.53487 -5.56269,-3.25994 c -5.30082,-3.09314 -12.46697,-12.1128 -12.46697,-15.67817 0,-1.20419 4.36816,-1.53475 20.11717,-1.53475 l 20.11951,0 -3.28356,-5.60779 c -1.80594,-3.08428 -4.60486,-6.74633 -6.2199,-8.13787 -2.84982,-2.45551 -2.93789,-2.99504 -2.98712,-18.29907 -0.0522,-16.23658 -0.61464,-18.77837 -5.50412,-24.87373 -5.4543,-6.81198 -1.98338,-15.09967 6.32793,-15.09967 3.48438,0 5.33613,0.78514 7.65704,3.24661 4.74913,5.03649 8.80444,14.96035 9.4357,23.09104 0.83551,10.76185 0.65517,10.56458 7.1194,7.78618 25.75327,-11.06926 51.19486,-16.81034 75.00725,-16.92602 8.9251,-0.0435 16.2295,-0.36452 16.23303,-0.71359 0.004,-0.34907 -2.51783,-3.04367 -5.60211,-5.98792 -34.50375,-32.93713 -87.52026,-53.61152 -147.91542,-57.67982 -41.23427,-2.77732 -87.28061,6.32782 -139.62772,27.60915 -12.28516,4.99457 -15.29802,5.20343 -19.17151,1.32886 -3.2943,-3.2943 -3.7068,-7.22777 -1.14194,-10.88947 2.06094,-2.94237 21.37684,-11.28131 40.99579,-17.69814 7.60508,-2.48737 13.84708,-4.84889 13.87187,-5.24781 0.0553,-0.90226 -29.95615,-19.33444 -48.9494,-30.06358 -14.96744,-8.45476 -49.283489,-25.3932 -49.997741,-24.67776 -0.231892,0.23189 3.219568,3.7631 7.669902,7.84722 14.050129,12.89434 33.514429,32.06822 38.223779,37.65474 6.46618,7.67026 6.98941,10.80483 2.54558,15.24843 -6.25062,6.25061 -7.48609,5.57708 -28.75905,-15.67699 C 81.671464,125.30204 62.558986,108.4787 47.392015,97.593712 33.748002,87.783065 33.999466,87.794865 33.999466,97.121477 c 0,20.856213 10.867516,71.487933 29.076618,135.460273 l 6.600645,23.1914 -4.33109,7.38986 c -13.337066,22.75577 -14.302784,45.47139 -3.38344,79.61035 3.480836,10.88322 4.130041,14.27917 3.223112,16.85757 -2.299074,6.53736 -11.679285,7.66624 -15.482183,1.8632 -4.892342,-7.4613 -12.736145,-38.00302 -13.742003,-53.5159 -1.03686,-15.98865 2.470255,-32.63253 10.100962,-47.93881 l 3.593699,-7.20818 -6.600057,-23.48655 C 24.882993,164.67223 15.982567,121.33297 15.806659,96.658757 15.685054,79.5639 17.526771,74.074179 24.637431,70.322287 32.455261,66.203228 57.584,70.537148 81.224023,80.083359 113.08682,92.947002 159.0635,117.8774 194.93792,141.7441 c 5.96053,3.96546 11.36867,7.17996 12.01835,7.14325 0.64932,-0.0366 9.14953,-1.5297 18.88935,-3.31768 15.71003,-2.88417 20.66613,-3.26267 43.90712,-3.35346 l 26.19834,-0.10242 6.74197,-15.34759 c 9.88514,-22.50312 25.76271,-53.667009 32.39405,-63.581556 10.21524,-15.273225 19.03928,-21.340247 27.82874,-19.133735 4.84796,1.216709 19.60951,17.103121 28.85112,31.049364 15.86942,23.948165 42.64743,82.384727 55.59609,121.316857 3.27541,9.84938 5.01807,13.08915 10.51604,19.54694 10.24925,12.03842 17.29912,22.45708 23.68725,35.00316 20.78538,40.8246 20.2553,83.07418 -1.50264,119.77029 -5.88131,9.91856 -20.4855,27.45212 -31.81203,38.19309 -32.18981,30.52636 -65.58855,47.38983 -110.25006,55.66691 -14.8612,2.75418 -19.86215,3.09513 -49.58455,3.38036 -18.181,0.17448 -34.91578,0.10683 -37.1884,-0.15045 z M 384.44253,280.89142 c 7.09933,-3.6604 14.25792,-10.58618 17.44669,-16.87882 3.25782,-6.42887 5.55099,-17.39945 3.98092,-19.04518 -0.55062,-0.5769 -4.89341,-0.1544 -9.92918,0.96596 l -8.94883,1.99519 0,8.22147 c 0,8.7976 -1.83451,14.70299 -5.79951,18.6674 -2.69527,2.69528 -8.25134,3.24176 -12.08683,1.18885 -2.58583,-1.38388 -6.82672,-9.67265 -6.89767,-13.4811 -0.0958,-5.14605 -1.62992,-5.6962 -8.10991,-2.9086 -3.33574,1.435 -6.06502,3.02159 -6.06502,3.5257 0,1.69059 9.41186,13.46456 13.02184,16.2897 6.87443,5.38005 14.82933,5.87801 23.38975,1.46417 z m 31.5582,-115.5556 c -17.66626,-43.97324 -37.00305,-79.825218 -52.3176,-96.999181 -4.07501,-4.570045 -4.97344,-5.077938 -6.59816,-3.729474 -3.27483,2.717827 -13.29692,19.241171 -21.26705,35.06218 -6.25709,12.431555 -20.83731,43.823285 -20.83731,44.874025 0,0.14658 3.58602,0.8783 7.96894,1.62601 31.90294,5.44261 67.1422,18.40295 92.38073,33.97604 4.22059,2.60413 7.81843,4.61633 7.99503,4.47134 0.17669,-0.14492 -3.11686,-8.82121 -7.3189,-19.28013 z M 183.80338,313.51097 c -10.01701,-3.63243 -16.90006,-8.41852 -25.03311,-17.40537 -9.79211,-10.82064 -18.43954,-29.00105 -22.00844,-46.27418 l -1.40301,-6.78835 -5.63623,0 c -6.15498,0 -8.79748,-1.87726 -10.12328,-7.19178 -0.57548,-2.30674 0.008,-3.97727 2.37416,-6.78836 l 3.14036,-3.73064 21.17968,0 c 45.7866,0 79.74847,6.43146 122.23771,23.15008 13.35005,5.2523 15.70532,5.89312 15.7974,4.29897 0.0283,-0.48698 0.48331,-3.1165 1.01118,-5.84341 1.88658,-9.74573 -1.67348,-21.96596 -9.95386,-34.16848 -4.89943,-7.21337 -1.28683,-14.59202 7.13073,-14.59202 4.73945,0 9.51126,4.97214 14.77029,15.39009 9.05556,17.93899 9.41752,35.18851 1.10405,52.60802 -4.06451,8.51651 -8.40529,11.28558 -13.82229,8.81744 -2.70731,-1.23347 -3.34672,-1.13323 -4.59093,0.72017 -12.84357,19.13255 -27.62568,30.47325 -48.23515,37.0066 -6.29699,1.99614 -12.0573,2.73825 -24.20197,3.11804 -14.57196,0.45569 -16.60611,0.25607 -23.73801,-2.33 z m 41.13748,-18.05469 c 11.23054,-2.92525 21.97893,-9.40831 30.40359,-18.33919 4.22614,-4.47985 7.68383,-8.86194 7.68383,-9.73794 0,-2.17274 -39.43507,-15.98983 -41.0442,-14.38069 -0.25747,0.25747 0.0537,1.44338 0.69157,2.6353 4.34916,8.12714 1.88634,23.7569 -4.60404,29.21828 -1.99601,1.6795 -4.36013,3.0537 -5.25383,3.0537 -3.4603,0 -7.8084,-2.94662 -10.31619,-6.99106 -3.47433,-5.60306 -3.82498,-22.57632 -0.56914,-27.54895 1.13632,-1.73557 2.06603,-3.62509 2.06603,-4.19886 0,-2.1143 -46.87983,-6.93865 -48.7971,-5.02173 -1.47231,1.4723 2.15115,13.23317 7.53342,24.45227 7.80226,16.26254 18.55408,25.92209 31.97496,28.7248 6.4134,1.33936 21.50081,0.40828 30.23123,-1.8658 z"
     id="path12631" />
</svg>
