<?xml version="1.0" encoding="UTF-8" standalone="no"?>
<svg id="svg8149" xmlns="http://www.w3.org/2000/svg" viewBox="0 0 512 512" version="1.1" xmlns:xlink="http://www.w3.org/1999/xlink">
	<path id="path12631" d="m252 435.39c-56.387-6.3821-92.314-17.981-127-41.003-14.815-9.8331-30-24.044-30-28.077 0-2.2904 2.7946-7.0201 4.5448-7.6917 4.3357-1.6638 6.604-0.50921 15.678 7.98 30.197 28.25 77.553 47.041 132.28 52.489 17.586 1.7506 51.464 1.5237 66.5-0.44545 42.64-5.5841 75.461-22.945 104.25-55.145 18.537-20.735 25.923-38.12 25.914-61-0.009-22.002-7.5636-42.483-23.389-63.407l-4.2298-5.5927-0.62529 3.8179c-0.9327 5.695-2.7876 6.9959-10.118 7.096l-6.29 0.08-0.60846 6c-1.894 18.676-11.622 32.974-27.635 40.616-12.897 6.1553-25.268 5.0155-36.315-3.346l-5.073-3.8396-4.5792 5.0932c-4.4072 4.9019-4.5935 5.3633-4.9592 12.285-0.20903 3.9553-1.0665 10.419-1.9055 14.363l-1.5254 7.1715 3.4858 7.3285c1.9172 4.0307 5.5304 10.478 8.0294 14.328 2.4989 3.85 4.5532 8.1876 4.5649 9.6392 0.0286 3.5237-2.7818 6.7204-6.5466 7.4464-4.3262 0.83425-8.0412-2.6034-13.496-12.489-2.4396-4.4209-4.6606-8.0504-4.9356-8.0655s-1.7915 2.0168-3.3701 4.5154-6.2609 8.1474-10.405 12.553c-10.486 11.146-14.4 12.91-19.59 8.8281-1.93-1.51-2.64-2.98-2.64-5.48 0-2.9256 0.9965-4.3646 6.9392-10.02 10.767-10.246 20.693-25.625 23.632-36.613 0.78047-2.9178 1.7067-8.9395 2.0582-13.382l0.63919-8.0764-4.7118-2.7613c-4.49-2.62-10.56-10.26-10.56-13.28 0-1.02 3.7-1.3 17.04-1.3h17.042l-2.7813-4.75c-1.5297-2.6125-3.9005-5.7144-5.2685-6.8931-2.4139-2.0799-2.4885-2.5369-2.5302-15.5-0.0442-13.753-0.52062-15.906-4.6622-21.069-4.62-5.77-1.68-12.79 5.36-12.79 2.9514 0 4.5199 0.66505 6.4858 2.75 4.0227 4.2661 7.4577 12.672 7.9924 19.559 0.70771 9.1157 0.55495 8.9486 6.0304 6.5952 21.814-9.3761 43.364-14.239 63.534-14.337 7.5599-0.0368 13.747-0.30876 13.75-0.60443 0.003-0.29568-2.1327-2.5781-4.7452-5.072-29.226-27.899-74.133-45.411-125.29-48.857-34.927-2.3525-73.93 5.3599-118.27 23.386-10.406 4.2306-12.958 4.4075-16.239 1.1256-2.7904-2.7904-3.1398-6.1222-0.96727-9.2238 1.7457-2.4923 18.107-9.5557 34.725-14.991 6.4418-2.1069 11.729-4.1072 11.75-4.4451 0.0468-0.76424-25.374-16.377-41.462-25.465-12.678-7.1615-41.745-21.509-42.35-20.903-0.19642 0.19642 2.7271 3.1875 6.4967 6.6469 11.901 10.922 28.388 27.163 32.377 31.895 5.4771 6.497 5.9203 9.1521 2.1562 12.916-5.2945 5.2945-6.341 4.724-24.36-13.279-17.44-17.43-33.629-31.68-46.476-40.9-11.557-8.31-11.344-8.3-11.344-0.4 0 17.666 9.2052 60.553 24.629 114.74l5.591 19.644-3.6686 6.2595c-11.297 19.275-12.115 38.516-2.8659 67.433 2.9484 9.2185 3.4983 12.095 2.7301 14.279-1.9474 5.5374-9.8928 6.4936-13.114 1.5782-4.144-6.32-10.788-32.19-11.64-45.33-0.87826-13.543 2.0924-27.641 8.5559-40.606l3.044-6.1056-5.5905-19.894c-15.393-54.78-22.932-91.49-23.081-112.39-0.103-14.48 1.457-19.13 7.48-22.308 6.622-3.489 27.907 0.182 47.931 8.268 26.989 10.896 65.933 32.013 96.32 52.229 5.0488 3.3589 9.6297 6.0817 10.18 6.0506 0.55-0.031 7.75-1.2957 16-2.8102 13.307-2.443 17.505-2.7636 37.191-2.8405l22.191-0.0867 5.7107-13c8.3731-19.061 21.822-45.458 27.439-53.856 8.6527-12.937 16.127-18.076 23.572-16.207 4.1064 1.0306 16.61 14.487 24.438 26.3 13.442 20.285 36.124 69.783 47.092 102.76 2.7744 8.3428 4.2505 11.087 8.9075 16.557 8.6815 10.197 14.653 19.022 20.064 29.649 17.606 34.58 17.157 70.367-1.2728 101.45-4.9817 8.4014-17.352 23.253-26.946 32.351-27.266 25.857-55.556 40.141-93.386 47.152-12.588 2.3329-16.824 2.6217-42 2.8633-15.4 0.14779-29.575 0.0905-31.5-0.12744zm112.84-158.33c6.0134-3.1005 12.077-8.9669 14.778-14.297 2.7595-5.4455 4.7019-14.738 3.372-16.132-0.4664-0.48865-4.1449-0.13078-8.4104 0.81821l-7.58 1.69v6.9639c0 7.4519-1.5539 12.454-4.9124 15.812-2.283 2.283-6.9892 2.7459-10.238 1.007-2.1903-1.1722-5.7825-8.1931-5.8426-11.419-0.0812-4.3589-1.3806-4.8249-6.8694-2.4637-2.8255 1.2155-5.1373 2.5594-5.1373 2.9864 0 1.432 7.9722 11.405 11.03 13.798 5.8229 4.5571 12.561 4.9789 19.812 1.2402zm26.731-97.88c-14.964-37.247-31.343-67.615-44.315-82.162-3.4517-3.871-4.2127-4.3012-5.5889-3.159-2.7739 2.3021-11.263 16.298-18.014 29.699-5.3 10.53-17.65 37.12-17.65 38.01 0 0.12417 3.0375 0.74396 6.75 1.3773 27.023 4.6101 56.872 15.588 78.25 28.779 3.575 2.2058 6.6225 3.9102 6.7721 3.7874 0.14966-0.12275-2.6401-7.4719-6.1994-16.331zm-196.68 125.51c-8.4848-3.0768-14.315-7.1308-21.204-14.743-8.2943-9.1655-15.619-24.565-18.642-39.196l-1.1884-5.75h-4.7741c-5.2135 0-7.4518-1.5901-8.5748-6.0917-0.48746-1.9539 0.007-3.3689 2.011-5.75l2.66-3.16h17.94c38.783 0 67.55 5.4477 103.54 19.609 11.308 4.4489 13.303 4.9917 13.381 3.6414 0.024-0.4125 0.40939-2.6398 0.85651-4.9496 1.598-8.255-1.4175-18.606-8.4313-28.942-4.15-6.11-1.09-12.36 6.04-12.36 4.0145 0 8.0564 4.2116 12.511 13.036 7.6704 15.195 7.977 29.806 0.93517 44.561-3.4428 7.2138-7.1196 9.5593-11.708 7.4687-2.2932-1.0448-2.8348-0.95989-3.8887 0.61001-10.879 16.206-23.4 25.812-40.857 31.346-5.3338 1.6908-10.213 2.3194-20.5 2.6411-12.343 0.38598-14.066 0.2169-20.107-1.9736zm34.845-15.293c9.5127-2.4778 18.617-7.9692 25.753-15.534 3.5797-3.7946 6.5085-7.5064 6.5085-8.2484 0-1.8404-33.403-13.544-34.766-12.181-0.21809 0.21809 0.0455 1.2226 0.58579 2.2322 3.6839 6.884 1.5978 20.123-3.8998 24.749-1.6907 1.4226-3.6932 2.5866-4.4502 2.5866-2.931 0-6.614-2.4959-8.7382-5.9217-2.9429-4.746-3.2399-19.123-0.48208-23.335 0.9625-1.4701 1.75-3.0706 1.75-3.5566 0-1.7909-39.709-5.8773-41.333-4.2536-1.2471 1.2471 1.8221 11.209 6.3811 20.712 6.6088 13.775 15.716 21.957 27.084 24.331 5.4324 1.1345 18.212 0.34583 25.607-1.5804z"/>
</svg>
